<?xml version="1.0" encoding="utf-8"?>
<!-- Generator: Adobe Illustrator 18.1.1, SVG Export Plug-In . SVG Version: 6.00 Build 0)  -->
<!DOCTYPE svg PUBLIC "-//W3C//DTD SVG 1.1//EN" "http://www.w3.org/Graphics/SVG/1.1/DTD/svg11.dtd">
<svg version="1.1" id="Capa_1" xmlns="http://www.w3.org/2000/svg" xmlns:xlink="http://www.w3.org/1999/xlink" x="0px" y="0px"
	 viewBox="-374 276.3 49.7 49.7" enable-background="new -374 276.3 49.7 49.7" xml:space="preserve">
<g>
	<polygon points="-361.5,299.1 -361.5,303.2 -358.6,301.1 	"/>
	<polygon points="-349.7,298.9 -352.7,301 -349.3,303.3 -346.2,301.2 	"/>
	<polygon points="-351,295.8 -351,289.5 -360.3,295.9 -355.7,299 	"/>
	<polygon points="-343.2,299.2 -338.4,296 -347.8,289.5 -347.7,295.9 	"/>
	<polygon points="-360.3,306.3 -350.9,312.6 -350.9,306.2 -355.6,303 	"/>
	<path d="M-349.2,276.3c-13.7,0-24.8,11.1-24.8,24.8c0,13.7,11.1,24.8,24.8,24.8c13.7,0,24.8-11.1,24.8-24.8
		C-324.3,287.5-335.5,276.3-349.2,276.3z M-333.8,305.9c0,0.8-0.4,1.6-1.1,2.1l-13,8.6c-0.8,0.6-1.9,0.6-2.8,0l-12.8-8.5
		c-0.7-0.5-1.1-1.2-1.1-2.1v-9.4c0-0.8,0.4-1.6,1.1-2.1l12.6-8.8c0.8-0.6,2-0.6,2.8,0l13.3,8.8c0.7,0.5,1.1,1.2,1.1,2.1V305.9z"/>
	<polygon points="-337.1,303.3 -337.1,299.1 -340.2,301.2 	"/>
	<polygon points="-347.7,306.2 -347.7,312.6 -338.4,306.3 -343.2,303.2 	"/>
</g>
</svg>
