<?xml version="1.0" encoding="utf-8"?>
<!-- Generator: Adobe Illustrator 18.1.1, SVG Export Plug-In . SVG Version: 6.00 Build 0)  -->
<!DOCTYPE svg PUBLIC "-//W3C//DTD SVG 1.1//EN" "http://www.w3.org/Graphics/SVG/1.1/DTD/svg11.dtd">
<svg version="1.1" id="Capa_1" xmlns="http://www.w3.org/2000/svg" xmlns:xlink="http://www.w3.org/1999/xlink" x="0px" y="0px"
	 viewBox="-374 276.3 49.7 49.7" enable-background="new -374 276.3 49.7 49.7" xml:space="preserve">
<g>
	<g>
		<path d="M-349.2,276.3c-13.7,0-24.8,11.1-24.8,24.8c0,13.7,11.1,24.8,24.8,24.8c13.7,0,24.8-11.1,24.8-24.8
			C-324.3,287.5-335.5,276.3-349.2,276.3z M-338.1,295.5c0,0.2,0,0.5,0,0.7c0,7.6-5.7,16.3-16.3,16.3c-3.2,0-6.2-0.9-8.8-2.6
			c0.4,0.1,0.9,0.1,1.4,0.1c2.7,0,5.1-0.9,7.1-2.4c-2.5,0-4.6-1.7-5.3-4c0.3,0.1,0.7,0.1,1.1,0.1c0.5,0,1-0.1,1.5-0.2
			c-2.6-0.5-4.6-2.8-4.6-5.6c0,0,0,0,0-0.1c0.8,0.4,1.7,0.7,2.6,0.7c-1.5-1-2.5-2.8-2.5-4.8c0-1,0.3-2,0.8-2.9c2.8,3.5,7,5.7,11.8,6
			c-0.1-0.4-0.1-0.9-0.1-1.3c0-3.2,2.6-5.7,5.7-5.7c1.6,0,3.1,0.7,4.2,1.8c1.3-0.3,2.5-0.7,3.6-1.4c-0.4,1.3-1.3,2.5-2.5,3.2
			c1.2-0.1,2.3-0.4,3.3-0.9C-336,293.7-337,294.7-338.1,295.5z"/>
	</g>
</g>
</svg>
