<?xml version="1.0" encoding="utf-8"?>
<!-- Generator: Adobe Illustrator 18.1.1, SVG Export Plug-In . SVG Version: 6.00 Build 0)  -->
<!DOCTYPE svg PUBLIC "-//W3C//DTD SVG 1.1//EN" "http://www.w3.org/Graphics/SVG/1.1/DTD/svg11.dtd">
<svg version="1.1" id="Layer_1" xmlns="http://www.w3.org/2000/svg" xmlns:xlink="http://www.w3.org/1999/xlink" x="0px" y="0px"
	 viewBox="0 0 400 300" enable-background="new 0 0 400 300" xml:space="preserve">
<g>
	<path fill="#FFFFFF" d="M191.4,137.2v10.5h10v4.5h-10v10.6h-4.7v-10.6h-10v-4.5h10v-10.5H191.4z"/>
</g>
<g>
	<path fill="#FFFFFF" d="M46.4,148.7v-1.3c5-4.3,11.3-10.3,15.9-15.3l2.4,1.6c-2.7,4.8-6.5,10-10.3,13.8c5.9,7.5,6.2,7.9,10.1,14.2
		l-2.2,1.6c-2.2-2.3-3.2-3.4-6.2-6.2c-3.6-3.4-3.2-2.9-8.3-7.3L46.4,148.7L46.4,148.7z M66.6,171.9l4.2-2.1
		c7.9,12,20.5,20.3,30.5,20.3c9.6,0,16.5-6.9,16.5-16.6c0-9.6-5.6-14.5-21.5-18.9c-19-5.2-26.3-12.2-26.3-25.8
		c0-13.6,10.6-24.6,23.5-24.6c3.6,0,3.3,0,11.6,2.5c1.2,0.4,2.8,0.7,3.4,0.7c0.9,0,2.2-0.4,3.4-0.9l4.5-2.2l8.2,22.9l-4.2,2.8
		c-7.7-12.7-17.4-20-27-20c-8.3,0-14.5,6.2-14.5,14.7c0,8.3,5.7,13.7,17.4,16.8c5.7,1.5,9.8,2.6,11.8,3.2c11.9,3.6,19,12.9,19,24.7
		c0,14.9-11.5,26.6-26,26.6c-4.5,0-6.7-0.5-12.3-3c-2.4-1.1-3.8-1.5-4.8-1.5c-1.3,0-2.2,0.4-3.8,1.3l-5,3.2L66.6,171.9L66.6,171.9z
		 M131.4,161.8c3.9-6.5,4.1-6.8,10-14.2c-3.8-3.9-7.6-9.1-10.3-13.8l2.5-1.6c4.6,5.1,10.6,10.9,15.8,15.3v1.3l-5,4.2
		c-1.9,1.6-7.3,6.8-10.9,10.5L131.4,161.8L131.4,161.8z"/>
	<g>
		<rect x="229.6" y="117" fill="#FFFFFF" width="75" height="20.2"/>
		<rect x="323.6" y="117" fill="#FFFFFF" width="30" height="20.2"/>
		<rect x="229.6" y="153" fill="#FFFFFF" width="37.5" height="31"/>
		<rect x="284.6" y="153" fill="#FFFFFF" width="69" height="31"/>
	</g>
</g>
</svg>
