<?xml version="1.0" encoding="utf-8"?>
<!-- Generator: Adobe Illustrator 18.1.1, SVG Export Plug-In . SVG Version: 6.00 Build 0)  -->
<!DOCTYPE svg PUBLIC "-//W3C//DTD SVG 1.1//EN" "http://www.w3.org/Graphics/SVG/1.1/DTD/svg11.dtd">
<svg version="1.1" id="Layer_1" xmlns="http://www.w3.org/2000/svg" xmlns:xlink="http://www.w3.org/1999/xlink" x="0px" y="0px"
	 viewBox="-248 203.5 1242 13" enable-background="new -248 203.5 1242 13" xml:space="preserve">
<path fill="none" stroke="#000000" stroke-width="3" stroke-miterlimit="10" d="M-248,205c10.9,0,10.9,10,21.8,10
	c10.9,0,10.9-10,21.8-10c10.9,0,10.9,10,21.8,10c10.9,0,10.9-10,21.8-10c10.9,0,10.9,10,21.8,10c10.9,0,10.9-10,21.8-10
	c10.9,0,10.9,10,21.8,10c10.9,0,10.9-10,21.8-10c10.9,0,10.9,10,21.8,10c10.9,0,10.9-10,21.8-10c10.9,0,10.9,10,21.8,10
	c10.9,0,10.9-10,21.8-10c10.9,0,10.9,10,21.8,10c10.9,0,10.9-10,21.8-10c10.9,0,10.9,10,21.8,10c10.9,0,10.9-10,21.8-10
	c10.9,0,10.9,10,21.8,10c10.9,0,10.9-10,21.8-10c10.9,0,10.9,10,21.8,10c10.9,0,10.9-10,21.8-10c10.9,0,10.9,10,21.8,10
	c10.9,0,10.9-10,21.8-10c10.9,0,10.9,10,21.8,10c10.9,0,10.9-10,21.8-10c10.9,0,10.9,10,21.8,10c10.9,0,10.9-10,21.8-10
	c10.9,0,10.9,10,21.8,10c10.9,0,10.9-10,21.8-10c10.9,0,10.9,10,21.8,10c10.9,0,10.9-10,21.8-10c10.9,0,10.9,10,21.8,10
	c10.9,0,10.9-10,21.8-10c10.9,0,10.9,10,21.8,10c10.9,0,10.9-10,21.8-10c10.9,0,10.9,10,21.8,10c10.9,0,10.9-10,21.8-10
	c10.9,0,10.9,10,21.8,10c10.9,0,10.9-10,21.8-10c10.9,0,10.9,10,21.8,10c10.9,0,10.9-10,21.8-10c10.9,0,10.9,10,21.8,10
	c10.9,0,10.9-10,21.8-10c10.9,0,10.9,10,21.8,10c10.9,0,10.9-10,21.8-10c10.9,0,10.9,10,21.8,10c10.9,0,10.9-10,21.8-10
	c10.9,0,10.9,10,21.8,10c10.9,0,10.9-10,21.8-10c10.9,0,10.9,10,21.8,10c10.9,0,10.9-10,21.8-10c10.9,0,10.9,10,21.8,10
	c10.9,0,10.9-10,21.8-10c10.9,0,10.9,10,21.8,10c10.9,0,10.9-10,21.8-10c10.9,0,10.9,10,21.8,10c10.9,0,10.9-10,21.8-10
	c10.9,0,10.9,10,21.8,10"/>
</svg>
