<?xml version="1.0" encoding="utf-8"?>
<!-- Generator: Adobe Illustrator 18.1.1, SVG Export Plug-In . SVG Version: 6.00 Build 0)  -->
<!DOCTYPE svg PUBLIC "-//W3C//DTD SVG 1.1//EN" "http://www.w3.org/Graphics/SVG/1.1/DTD/svg11.dtd">
<svg version="1.1" id="Capa_1" xmlns="http://www.w3.org/2000/svg" xmlns:xlink="http://www.w3.org/1999/xlink" x="0px" y="0px"
	 viewBox="-374 276.3 49.7 49.7" enable-background="new -374 276.3 49.7 49.7" xml:space="preserve">
<g>
	<g>
		<g>
			<path d="M-349.9,296.8c-2.3-4.1-4.8-7.4-4.9-7.7c-3.7,1.8-6.5,5.2-7.4,9.3C-361.9,298.4-356.3,298.5-349.9,296.8z"/>
			<path d="M-352.4,288.2C-352.4,288.2-352.4,288.3-352.4,288.2C-352.4,288.2-352.4,288.2-352.4,288.2L-352.4,288.2z"/>
			<path d="M-340.4,291.2c-2.3-2.1-5.4-3.3-8.8-3.3c-1.1,0-2.1,0.1-3.1,0.4c0.2,0.3,2.7,3.6,5,7.8
				C-342.3,294.1-340.4,291.2-340.4,291.2z"/>
			<path d="M-346.9,303.4c-7.9,2.7-10.4,8.3-10.4,8.3c2.3,1.8,5.1,2.8,8.2,2.8c1.8,0,3.6-0.4,5.2-1.1
				C-344.2,312.3-344.9,308.2-346.9,303.4C-346.8,303.3-346.9,303.3-346.9,303.4z"/>
			<path d="M-348.3,301.3c0.2-0.1,0.4-0.1,0.5-0.2c-0.3-0.8-0.7-1.5-1.1-2.3c-6.9,2.1-13.4,1.9-13.7,1.9c0,0.1,0,0.3,0,0.4
				c0,3.4,1.3,6.5,3.4,8.9l0,0C-359.1,310.1-355.4,303.6-348.3,301.3z"/>
			<path d="M-349.2,276.3c-13.7,0-24.8,11.1-24.8,24.8c0,13.7,11.1,24.8,24.8,24.8c13.7,0,24.8-11.1,24.8-24.8
				C-324.3,287.5-335.5,276.3-349.2,276.3z M-333.9,304.3c-0.2,1-0.5,2-0.9,2.9c-0.4,0.9-0.9,1.8-1.4,2.6c-0.6,0.8-1.2,1.6-1.9,2.3
				c-0.7,0.7-1.5,1.3-2.3,1.9c-0.8,0.6-1.7,1-2.6,1.4c-0.9,0.4-1.9,0.7-2.9,0.9c-1,0.2-2.1,0.3-3.1,0.3c-1.1,0-2.1-0.1-3.1-0.3
				c-1-0.2-2-0.5-2.9-0.9c-0.9-0.4-1.8-0.9-2.7-1.4c-0.8-0.6-1.6-1.2-2.3-1.9c-0.7-0.7-1.3-1.5-1.9-2.3c-0.6-0.8-1-1.7-1.4-2.6
				c-0.4-0.9-0.7-1.9-0.9-2.9c-0.2-1-0.3-2.1-0.3-3.1c0-1.1,0.1-2.1,0.3-3.1c0.2-1,0.5-2,0.9-2.9c0.4-0.9,0.9-1.8,1.4-2.6
				c0.6-0.8,1.2-1.6,1.9-2.3c0.7-0.7,1.5-1.3,2.3-1.9c0.8-0.6,1.7-1,2.6-1.4c0.9-0.4,1.9-0.7,2.9-0.9c1-0.2,2.1-0.3,3.1-0.3
				c1.1,0,2.1,0.1,3.1,0.3c1,0.2,2,0.5,2.9,0.9c0.9,0.4,1.8,0.9,2.6,1.4c0.8,0.6,1.6,1.2,2.3,1.9c0.7,0.7,1.3,1.5,1.9,2.3
				c0.6,0.8,1,1.7,1.4,2.6c0.4,0.9,0.7,1.9,0.9,2.9c0.2,1,0.3,2.1,0.3,3.1C-333.6,302.2-333.7,303.3-333.9,304.3z"/>
			<path d="M-344.3,302.7c1.7,4.8,2.5,8.7,2.6,9.5c3-2,5.1-5.2,5.7-8.9C-336.3,303.2-340,302-344.3,302.7z"/>
			<path d="M-346.3,298c0.3,0.6,0.6,1.3,0.9,1.9c0.1,0.2,0.2,0.5,0.3,0.7c4.6-0.6,9.1,0.4,9.3,0.4c0-3.2-1.2-6.1-3-8.3
				C-338.9,292.8-341,295.8-346.3,298z"/>
		</g>
	</g>
</g>
</svg>
