<?xml version="1.0" encoding="utf-8"?>
<!-- Generator: Adobe Illustrator 18.1.1, SVG Export Plug-In . SVG Version: 6.00 Build 0)  -->
<!DOCTYPE svg PUBLIC "-//W3C//DTD SVG 1.1//EN" "http://www.w3.org/Graphics/SVG/1.1/DTD/svg11.dtd">
<svg version="1.1" id="Capa_1" xmlns="http://www.w3.org/2000/svg" xmlns:xlink="http://www.w3.org/1999/xlink" x="0px" y="0px"
	 viewBox="-374 276.3 49.7 49.7" enable-background="new -374 276.3 49.7 49.7" xml:space="preserve">
<path d="M-349.2,276.3c-13.7,0-24.8,11.1-24.8,24.8c0,13.7,11.1,24.8,24.8,24.8c13.7,0,24.8-11.1,24.8-24.8
	C-324.3,287.5-335.5,276.3-349.2,276.3z M-355.1,311.5h-4.7v-13.9h4.7V311.5z M-357.4,295.7L-357.4,295.7c-1.6,0-2.6-1.1-2.6-2.4
	c0-1.4,1-2.4,2.6-2.4c1.6,0,2.6,1,2.6,2.4C-354.8,294.6-355.8,295.7-357.4,295.7z M-338.3,311.5h-4.7V304c0-1.9-0.7-3.2-2.4-3.2
	c-1.3,0-2.1,0.9-2.4,1.7c-0.1,0.3-0.2,0.7-0.2,1.1v7.8h-4.7c0,0,0.1-12.6,0-13.9h4.7v2c0.6-1,1.7-2.3,4.2-2.3c3.1,0,5.4,2,5.4,6.3
	V311.5z"/>
<path d="M-347,303.4C-347,303.4-347,303.4-347,303.4L-347,303.4L-347,303.4z"/>
</svg>
