<?xml version="1.0" encoding="utf-8"?>
<!-- Generator: Adobe Illustrator 18.1.1, SVG Export Plug-In . SVG Version: 6.00 Build 0)  -->
<!DOCTYPE svg PUBLIC "-//W3C//DTD SVG 1.1//EN" "http://www.w3.org/Graphics/SVG/1.1/DTD/svg11.dtd">
<svg version="1.1" id="Layer_1" xmlns="http://www.w3.org/2000/svg" xmlns:xlink="http://www.w3.org/1999/xlink" x="0px" y="0px"
	 viewBox="0 0 400 300" enable-background="new 0 0 400 300" xml:space="preserve">
<path fill="#FFFFFF" d="M169.1,157.5c-4.7,0-8.7,1.1-12.1,2.8c-1.2-2.5-2.5-4.6-2.7-6.2c-0.2-1.9-0.5-3-0.2-5.2
	c0.3-2.2,1.6-5.4,1.6-5.7c0-0.2-0.3-1.4-3-1.4c-2.7,0-5,0.5-5.2,1.2c-0.3,0.7-0.8,2.3-1.1,4c-0.5,2.4-5.4,11.1-8.1,15.7
	c-0.9-1.8-1.7-3.3-1.8-4.6c-0.2-1.9-0.5-3-0.2-5.2c0.3-2.2,1.6-5.4,1.6-5.7c0-0.2-0.3-1.4-3-1.4c-2.7,0-5,0.5-5.2,1.2
	c-0.3,0.7-0.6,2.4-1.1,4c-0.5,1.6-7,16.1-8.7,19.8c-0.9,1.9-1.6,3.4-2.2,4.5c0,0,0,0,0,0s0,0.1-0.1,0.2c-0.5,0.9-0.7,1.4-0.7,1.4
	s0,0,0,0c-0.4,0.7-0.7,1.3-0.9,1.3c-0.1,0-0.4-1.7,0.1-4.1c1-5,3.3-12.9,3.3-13.1c0-0.1,0.4-1.5-1.5-2.2c-1.9-0.7-2.6,0.5-2.7,0.5
	c-0.2,0-0.3,0.4-0.3,0.4s2.1-8.8-4-8.8c-3.8,0-9.1,4.2-11.8,8c-1.7,0.9-5.2,2.8-8.9,4.9c-1.4,0.8-2.9,1.6-4.3,2.4
	c-0.1-0.1-0.2-0.2-0.3-0.3c-7.4-7.9-21.2-13.5-20.6-24.2c0.2-3.9,1.6-14.1,26.4-26.5c20.4-10.1,36.7-7.4,39.5-1.2
	c4,8.8-8.7,25.3-29.9,27.6c-8.1,0.9-12.3-2.2-13.4-3.4c-1.1-1.2-1.3-1.3-1.7-1c-0.7,0.4-0.2,1.5,0,2.1c0.6,1.6,3.2,4.6,7.6,6
	c3.9,1.3,13.3,2,24.8-2.4c12.8-5,22.8-18.7,19.9-30.3c-3-11.7-22.4-15.6-40.8-9c-10.9,3.9-22.8,10-31.3,18
	C55.7,130.7,54,139,54.7,142.4c2.4,12.2,19.2,20.2,26,26.1c-0.3,0.2-0.6,0.4-0.9,0.5c-3.4,1.7-16.3,8.4-19.5,15.5
	c-3.7,8.1,0.6,13.9,3.4,14.6c8.7,2.4,17.6-1.9,22.4-9.1c4.8-7.1,4.2-16.4,2-20.7c0-0.1-0.1-0.1-0.1-0.2c0.9-0.5,1.8-1,2.7-1.6
	c1.7-1,3.4-2,4.9-2.8c-0.8,2.3-1.4,5-1.7,8.9c-0.4,4.6,1.5,10.5,4,12.8c1.1,1,2.4,1,3.2,1c2.9,0,4.2-2.4,5.6-5.2
	c1.8-3.4,3.3-7.5,3.3-7.5s-2,10.8,3.4,10.8c1.9,0,3.9-2.5,4.8-3.8c0,0,0,0,0,0s0.1-0.1,0.1-0.3c0.2-0.3,0.3-0.5,0.3-0.5s0,0,0-0.1
	c0.8-1.4,2.5-4.5,5.1-9.6c3.4-6.6,6.6-14.9,6.6-14.9s0.3,2,1.3,5.4c0.6,2,1.8,4.1,2.8,6.2c-0.8,1.1-1.3,1.7-1.3,1.7s0,0,0,0
	c-0.6,0.8-1.3,1.7-2.1,2.6c-2.7,3.2-5.8,6.8-6.2,7.8c-0.5,1.2-0.4,2.1,0.6,2.9c0.7,0.5,2,0.6,3.3,0.5c2.4-0.2,4.1-0.8,4.9-1.1
	c1.3-0.5,2.8-1.2,4.2-2.2c2.6-1.9,4.2-4.7,4-8.3c-0.1-2-0.7-4-1.5-5.9c0.2-0.3,0.5-0.7,0.7-1c4.1-6,7.3-12.6,7.3-12.6s0.3,2,1.3,5.4
	c0.5,1.7,1.5,3.5,2.4,5.3c-3.9,3.1-6.3,6.8-7.1,9.2c-1.5,4.4-0.3,6.4,1.9,6.9c1,0.2,2.5-0.3,3.6-0.7c1.4-0.4,3-1.2,4.5-2.3
	c2.6-1.9,5.1-4.6,5-8.2c-0.1-1.7-0.5-3.3-1.1-4.9c3.3-1.4,7.5-2.1,12.9-1.5c11.6,1.4,13.8,8.6,13.4,11.6c-0.4,3-2.9,4.7-3.7,5.2
	c-0.8,0.5-1.1,0.7-1,1c0.1,0.5,0.5,0.5,1.2,0.4c1-0.2,6.1-2.5,6.3-8C188,165.2,181.2,157.4,169.1,157.5z M79.9,187.5
	c-3.8,4.2-9.2,5.8-11.5,4.4c-2.5-1.4-1.5-7.6,3.2-12c2.9-2.7,6.6-5.2,9-6.7c0.6-0.3,1.4-0.8,2.4-1.4c0.2-0.1,0.3-0.1,0.3-0.1l0,0
	c0.2-0.1,0.4-0.2,0.6-0.4C85.6,177.6,83.9,183.2,79.9,187.5z M107.8,168.6c-1.3,3.3-4.1,11.6-5.8,11.1c-1.5-0.4-2.4-6.7-0.3-12.9
	c1-3.1,3.2-6.9,4.5-8.3c2.1-2.3,4.4-3.1,5-2.2C111.9,157.5,108.7,166.5,107.8,168.6z M130.9,179.6c-0.6,0.3-1.1,0.5-1.3,0.3
	c-0.2-0.1,0.2-0.5,0.2-0.5s2.9-3.1,4-4.5c0.7-0.8,1.4-1.8,2.3-2.9c0,0.1,0,0.2,0,0.3C136.1,176,132.5,178.6,130.9,179.6z
	 M148.7,175.5c-0.4-0.3-0.4-1.3,1-4.3c0.5-1.2,1.8-3.2,4-5.1c0.3,0.8,0.4,1.5,0.4,2.2C154.1,173,150.7,174.8,148.7,175.5z"/>
<path fill="#FFFFFF" d="M238.7,148.7v-1.3c5-4.3,11.3-10.3,15.9-15.3l2.4,1.6c-2.7,4.8-6.5,10-10.3,13.8c5.9,7.5,6.2,7.9,10.1,14.2
	l-2.2,1.6c-2.2-2.3-3.2-3.4-6.2-6.2c-3.6-3.4-3.2-2.9-8.3-7.3L238.7,148.7L238.7,148.7z M258.9,171.9l4.2-2.1
	c7.9,12,20.5,20.3,30.5,20.3c9.6,0,16.5-6.9,16.5-16.6c0-9.6-5.6-14.5-21.5-18.9c-19-5.2-26.3-12.2-26.3-25.8
	c0-13.6,10.6-24.6,23.5-24.6c3.6,0,3.3,0,11.6,2.5c1.2,0.4,2.8,0.7,3.4,0.7c0.9,0,2.2-0.4,3.4-0.9l4.5-2.2l8.2,22.9l-4.2,2.8
	c-7.7-12.7-17.4-20-27-20c-8.3,0-14.5,6.2-14.5,14.7c0,8.3,5.7,13.7,17.4,16.8c5.7,1.5,9.8,2.6,11.8,3.2c11.9,3.6,19,12.9,19,24.7
	c0,14.9-11.5,26.6-26,26.6c-4.5,0-6.7-0.5-12.3-3c-2.4-1.1-3.8-1.5-4.8-1.5c-1.3,0-2.2,0.4-3.8,1.3l-5,3.2L258.9,171.9L258.9,171.9z
	 M323.7,161.8c3.9-6.5,4.1-6.8,10-14.2c-3.8-3.9-7.6-9.1-10.3-13.8l2.5-1.6c4.6,5.1,10.6,10.9,15.8,15.3v1.3l-5,4.2
	c-1.9,1.6-7.3,6.8-10.9,10.5L323.7,161.8L323.7,161.8z"/>
<g>
	<path fill="#FFFFFF" d="M211.4,137.2v10.5h10v4.5h-10v10.6h-4.7v-10.6h-10v-4.5h10v-10.5H211.4z"/>
</g>
</svg>
